<svg
  class="letter-i"
  data-name="Layer 1"
  xmlns="http://www.w3.org/2000/svg"
  viewBox="0 0 800 800"
>
  <style>
    .letter-i {
      width: 80vh;
      height: 80vh;
    }

    .cls-6-1 {
      fill: none;
      stroke: #000;
      stroke-miterlimit: 10;
      stroke-width: 3px;
      stroke-linecap: round;
      stroke-dasharray: 1500;
      animation: lines-6-1 4s infinite calc(var(--item) * 1s);
    }

    .cls-6-2 {
      fill: none;
      stroke: #000;
      stroke-miterlimit: 10;
      stroke-width: 3px;
      stroke-linecap: round;
      stroke-dasharray: 500;
      animation: lines-6-1 4s infinite calc(var(--item) * 1s);
    }

    .cls-6-3 {
      fill: none;
      stroke: #000;
      stroke-miterlimit: 1;
      stroke-width: 3px;
      stroke-linecap: round;
      stroke-dasharray: 50;
      animation: lines-6-1 14s infinite calc(var(--item) * 1s);
    }

    .dot {
      stroke-dasharray: 500;
      stroke: var(--color);
    }

    .stem {
      stroke: var(--color);
    }

    @keyframes lines-6-1 {
      100% {
        stroke-dashoffset: 3500;
      }
    }
    @keyframes lines-6-2 {
      100% {
        stroke-dashoffset: 1000;
      }
    }

    @keyframes lines-6-3 {
      100% {
        stroke-dashoffset: 100;
      }
    }
  </style>
  <g>
    <g>
      <g>
        <path
          class="cls-6-1 stem"
          style="--item: 1; --color: rgb(246, 9, 149)"
          d="M437.019,74.98C388.667,26.628,324.381,0,256,0S123.333,26.628,74.982,74.98C26.628,123.333,0,187.62,0,256
          s26.628,132.667,74.982,181.02C123.333,485.372,187.619,512,256,512s132.667-26.628,181.019-74.98
          C485.372,388.667,512,324.38,512,256S485.372,123.333,437.019,74.98z M256,491.602c-129.911,0-235.602-105.69-235.602-235.602
          S126.089,20.398,256,20.398S491.602,126.089,491.602,256S385.911,491.602,256,491.602z"/>
        <path
          class="cls-6-1 stem"
          style="--item: 2; --color: rgb(254, 219, 59)"
          d="M437.019,74.98C388.667,26.628,324.381,0,256,0S123.333,26.628,74.982,74.98C26.628,123.333,0,187.62,0,256
          s26.628,132.667,74.982,181.02C123.333,485.372,187.619,512,256,512s132.667-26.628,181.019-74.98
          C485.372,388.667,512,324.38,512,256S485.372,123.333,437.019,74.98z M256,491.602c-129.911,0-235.602-105.69-235.602-235.602
          S126.089,20.398,256,20.398S491.602,126.089,491.602,256S385.911,491.602,256,491.602z"/>
        <path
          class="cls-6-1 stem"
          style="--item: 3; --color: rgb(49, 191, 186)"
          d="M437.019,74.98C388.667,26.628,324.381,0,256,0S123.333,26.628,74.982,74.98C26.628,123.333,0,187.62,0,256
          s26.628,132.667,74.982,181.02C123.333,485.372,187.619,512,256,512s132.667-26.628,181.019-74.98
          C485.372,388.667,512,324.38,512,256S485.372,123.333,437.019,74.98z M256,491.602c-129.911,0-235.602-105.69-235.602-235.602
          S126.089,20.398,256,20.398S491.602,126.089,491.602,256S385.911,491.602,256,491.602z"/>
      </g>
    </g>
    <g>
      <g>
        <path
          class="cls-6-2 stem"
          style="--item: 1; --color: rgb(246, 9, 149)" 
          d="M215.666,136.009c-9.539-23.216-26.109-37.077-44.32-37.077c-29.454,0-52.526,35.616-52.526,81.084
          c0,41.867,19.424,75.727,46.187,80.513c2.119,0.379,4.252,0.571,6.339,0.571c29.454,0,52.526-35.616,52.526-81.084
          C223.872,164.291,221.035,149.074,215.666,136.009z M149.94,224.442l-0.006-0.007c-6.29-10.681-10.714-26.062-10.714-44.419
          c0-35.762,16.932-60.685,32.128-60.685c6.483,0,13.081,4.353,18.586,11.901l0.015,0.019c-23.616,8.03-40.784,39.893-40.784,79.107
          C149.164,215.115,149.429,219.823,149.94,224.442z M174.003,240.452c-2.915-9.179-4.441-19.454-4.441-30.094
          c0-33.689,15.026-57.759,29.472-60.436c2.915,9.179,4.441,19.454,4.441,30.094C203.474,213.705,188.448,237.775,174.003,240.452z"
          />
        <path
          class="cls-6-2 stem"
          style="--item: 2; --color: rgb(254, 219, 59)" 
          d="M215.666,136.009c-9.539-23.216-26.109-37.077-44.32-37.077c-29.454,0-52.526,35.616-52.526,81.084
          c0,41.867,19.424,75.727,46.187,80.513c2.119,0.379,4.252,0.571,6.339,0.571c29.454,0,52.526-35.616,52.526-81.084
          C223.872,164.291,221.035,149.074,215.666,136.009z M149.94,224.442l-0.006-0.007c-6.29-10.681-10.714-26.062-10.714-44.419
          c0-35.762,16.932-60.685,32.128-60.685c6.483,0,13.081,4.353,18.586,11.901l0.015,0.019c-23.616,8.03-40.784,39.893-40.784,79.107
          C149.164,215.115,149.429,219.823,149.94,224.442z M174.003,240.452c-2.915-9.179-4.441-19.454-4.441-30.094
          c0-33.689,15.026-57.759,29.472-60.436c2.915,9.179,4.441,19.454,4.441,30.094C203.474,213.705,188.448,237.775,174.003,240.452z"
          />
        <path
          class="cls-6-2 stem"
          style="--item: 3; --color: rgb(49, 191, 186)" 
          d="M215.666,136.009c-9.539-23.216-26.109-37.077-44.32-37.077c-29.454,0-52.526,35.616-52.526,81.084
          c0,41.867,19.424,75.727,46.187,80.513c2.119,0.379,4.252,0.571,6.339,0.571c29.454,0,52.526-35.616,52.526-81.084
          C223.872,164.291,221.035,149.074,215.666,136.009z M149.94,224.442l-0.006-0.007c-6.29-10.681-10.714-26.062-10.714-44.419
          c0-35.762,16.932-60.685,32.128-60.685c6.483,0,13.081,4.353,18.586,11.901l0.015,0.019c-23.616,8.03-40.784,39.893-40.784,79.107
          C149.164,215.115,149.429,219.823,149.94,224.442z M174.003,240.452c-2.915-9.179-4.441-19.454-4.441-30.094
          c0-33.689,15.026-57.759,29.472-60.436c2.915,9.179,4.441,19.454,4.441,30.094C203.474,213.705,188.448,237.775,174.003,240.452z"
          />
      </g>
    </g>
    <g>
      <g>
        <path
          class="cls-6-2 stem"
          style="--item: 1; --color: rgb(246, 9, 149)" 
          d="M384.463,136.009c-9.539-23.216-26.109-37.077-44.32-37.077c-29.454,0-52.526,35.616-52.526,81.084
          c0,41.867,19.424,75.727,46.187,80.513c2.119,0.379,4.252,0.571,6.339,0.571c29.454,0,52.526-35.616,52.526-81.084
          C392.669,164.291,389.832,149.074,384.463,136.009z M318.736,224.442l-0.006-0.007c-6.29-10.681-10.714-26.062-10.714-44.419
          c0-35.762,16.932-60.685,32.128-60.685c6.483,0,13.081,4.353,18.586,11.901l0.015,0.019c-23.616,8.03-40.784,39.893-40.784,79.107
          C317.961,215.115,318.225,219.823,318.736,224.442z M342.799,240.452c-2.915-9.179-4.441-19.454-4.441-30.094
          c0-33.689,15.026-57.759,29.472-60.436c2.915,9.179,4.441,19.454,4.441,30.094C372.271,213.705,357.244,237.775,342.799,240.452z"
          />
        <path
          class="cls-6-2 stem"
          style="--item: 2; --color: rgb(254, 219, 59)" 
          d="M384.463,136.009c-9.539-23.216-26.109-37.077-44.32-37.077c-29.454,0-52.526,35.616-52.526,81.084
          c0,41.867,19.424,75.727,46.187,80.513c2.119,0.379,4.252,0.571,6.339,0.571c29.454,0,52.526-35.616,52.526-81.084
          C392.669,164.291,389.832,149.074,384.463,136.009z M318.736,224.442l-0.006-0.007c-6.29-10.681-10.714-26.062-10.714-44.419
          c0-35.762,16.932-60.685,32.128-60.685c6.483,0,13.081,4.353,18.586,11.901l0.015,0.019c-23.616,8.03-40.784,39.893-40.784,79.107
          C317.961,215.115,318.225,219.823,318.736,224.442z M342.799,240.452c-2.915-9.179-4.441-19.454-4.441-30.094
          c0-33.689,15.026-57.759,29.472-60.436c2.915,9.179,4.441,19.454,4.441,30.094C372.271,213.705,357.244,237.775,342.799,240.452z"
          />
        <path
          class="cls-6-2 stem"
          style="--item: 3; --color: rgb(49, 191, 186)" 
          d="M384.463,136.009c-9.539-23.216-26.109-37.077-44.32-37.077c-29.454,0-52.526,35.616-52.526,81.084
          c0,41.867,19.424,75.727,46.187,80.513c2.119,0.379,4.252,0.571,6.339,0.571c29.454,0,52.526-35.616,52.526-81.084
          C392.669,164.291,389.832,149.074,384.463,136.009z M318.736,224.442l-0.006-0.007c-6.29-10.681-10.714-26.062-10.714-44.419
          c0-35.762,16.932-60.685,32.128-60.685c6.483,0,13.081,4.353,18.586,11.901l0.015,0.019c-23.616,8.03-40.784,39.893-40.784,79.107
          C317.961,215.115,318.225,219.823,318.736,224.442z M342.799,240.452c-2.915-9.179-4.441-19.454-4.441-30.094
          c0-33.689,15.026-57.759,29.472-60.436c2.915,9.179,4.441,19.454,4.441,30.094C372.271,213.705,357.244,237.775,342.799,240.452z"
          />
      </g>
    </g>
    <g>
      <g>
        <path
          class="cls-6-3 stem"
          style="--item: 1; --color: rgb(246, 9, 149)"
          d="M376.185,355.451c-3.498-4.413-9.916-5.157-14.328-1.656c-4.768,3.78-10.135,7.331-15.951,10.556
          c-4.927,2.731-6.706,8.94-3.974,13.866c1.862,3.359,5.341,5.255,8.928,5.255c1.673,0,3.37-0.413,4.938-1.281
          c6.789-3.764,13.09-7.94,18.729-12.41C378.943,366.281,379.686,359.866,376.185,355.451z"/>
      </g>
    </g>
    <g>
      <g>
        <path
          class="cls-6-3 stem"
          style="--item: 1; --color: rgb(254, 219, 59)" 
          d="M416.79,325.62h-10.8c1.68-5.935,2.534-11.988,2.534-18.114c0-5.633-4.567-10.199-10.199-10.199
          s-10.199,4.566-10.199,10.199c0,7.961-2.1,15.84-6.239,23.416l-0.241,0.489c-0.643,1.336-1.013,2.827-1.013,4.408
          c0,5.633,4.567,10.199,10.199,10.199h25.957c5.632,0,10.199-4.566,10.199-10.199C426.99,330.186,422.422,325.62,416.79,325.62z"/>
      </g>
    </g>
    <g>
      <g>
        <path
          class="cls-6-3 stem"
          style="--item: 1; --color: rgb(49, 191, 186)"  
          d="M324.967,384.977c-1.537-5.419-7.175-8.565-12.596-7.028c-17.73,5.03-36.717,7.581-56.434,7.581
          c-28.929,0-56.457-5.528-79.605-15.986c-21.609-9.764-38.066-23.477-46.341-38.613c0-0.001-0.001-0.002-0.001-0.003
          c-4.142-7.577-6.241-15.457-6.241-23.421c0-5.633-4.567-10.199-10.199-10.199s-10.199,4.566-10.199,10.199
          c0,6.127,0.855,12.18,2.534,18.114H94.569c-5.632,0-10.199,4.566-10.199,10.199c0,5.633,4.567,10.199,10.199,10.199h20.73
          c23.489,36.054,78.907,59.91,140.639,59.91c21.601,0,42.461-2.811,62.002-8.355C323.359,396.035,326.505,390.396,324.967,384.977z
          "/>
      </g>
    </g> 
  </g>
</svg>