<svg
  class="letter-i"
  data-name="Layer 1"
  xmlns="http://www.w3.org/2000/svg"
  viewBox="0 0 800 800"
>
  <style>
    .letter-i {
      width: 80vh;
      height: 80vh;
    }

    .cls-1 {
      fill: none;
      stroke: #000;
      stroke-miterlimit: 10;
      stroke-width: 2px;
      stroke-linecap: round;
      stroke-miterlimit: 10;
      stroke-dasharray: 1500;
      animation: lines 4s infinite calc(var(--item) * 1s);
    }

    .dot {
      stroke-dasharray: 500;
      stroke: var(--color);
    }

    .stem {
      stroke: var(--color);
    }

    @keyframes lines {
      100% {
        stroke-dashoffset: 3000;
      }
    }
  </style>
  <path class="cls-1 stem"
    style="--item: 1; --color: rgb(246, 9, 149)" d="m145.24 318.94c-1.3551-0.25062-7.1756-1.6078-12.935-3.016l-10.471-2.5603-7.3912-3.6986c-4.0652-2.0342-11.114-6.4433-15.665-9.798l-8.2735-6.0995-8.8655-9.4612-8.8655-9.4612-8.5488-12.935c-13.04-19.73-19.254-35.08-25.425-62.81l-2.33-10.471-0.77488-14.782-0.7749-14.782 1.818-11.087c2.0596-12.561 5.8045-26.898 7.1862-27.512 0.50815-0.22586 0.94131-1.3345 0.96257-2.4637 0.04693-2.4917 5.8272-14.313 9.5662-19.564 1.4926-2.0962 2.7138-4.1725 2.7138-4.6141 0-0.44158 2.6863-4.1228 5.9696-8.1805l5.9696-7.3777 10.353-8.7703c13.206-11.195 21.123-16.242 34.753-22.152l10.94-4.7451 12.683-3.0556c6.9756-1.6806 13.852-3.0556 15.281-3.0556h2.5984l0.0188-1.5398 0.0188-1.5398 1.0919 1.7245 1.0919 1.7245 3.4686-2.7284 3.4686-2.7284 8.0473 0.7574c4.426 0.41657 11.665 1.2646 16.088 1.8844l8.0404 1.127 8.5898 3.6087c16.719 7.0238 22.994 11.172 33.843 22.37l5.5434 5.7219 5.8072 11.602 5.8072 11.602 1.8254 6.7753c1.9821 7.3567 5.4398 34.52 4.6832 36.789-0.25639 0.76916-1.0828 1.3985-1.8364 1.3985-0.75362 0-9.7155 3.1183-19.915 6.9295l-18.545 6.9296-11.087 5.5681-11.087 5.5681-13.84 4.7088-13.84 4.7088-19.326 3.7354-19.326 3.7353h-8.2663-8.2663l-4.4236 4.8964-4.4236 4.8964-0.80447 3.2053-0.80447 3.2053 0.57611 12.954 0.57611 12.954 1.3519 0.83553c0.74354 0.45953 1.9197 2.329 2.6138 4.1545l1.2619 3.319-1.1848 0.73225-1.1848 0.73223v-2.1258-2.1258l-0.82195 0.82195-0.82195 0.82194 2.2135 9.5463 2.2135 9.5463 2.521 5.2806 2.521 5.2806 7.0901 6.4221c7.7344 7.0057 15.089 11.966 17.742 11.966 0.92934 0 1.9988 0.5001 2.3765 1.1113 0.37776 0.61123 4.5539 2.2859 9.2802 3.7215l8.5934 2.6102 4.651-0.002c2.558-0.001 8.2542-0.203 12.658-0.44798l8.0072-0.44542 3.3279-1.3725 3.3279-1.3725 9.2629-8.7989 9.2629-8.7989 5.0195-8.7062 5.0195-8.7062 2.5106-7.4526 2.5106-7.4526-0.62165-11.982-0.62165-11.982 1.4425-1.164c0.79337-0.64019 4.4914-2.1379 8.2178-3.3282 7.3526-2.3486 9.8826-3.3963 15.13-6.265l3.4269-1.8736 4.8889-0.4475 4.8889-0.44752 1.1452 2.1398 1.1452 2.1398-0.83795 1.2946-0.83795 1.2946-6.7753 1.4606c-3.7264 0.80332-10.021 2.3749-13.987 3.4924l-7.2117 2.0319-0.61658 1.6068-0.61659 1.6068-0.93761-0.57947-0.9376-0.57947-0.62082 15.061-0.62081 15.061-2.2292 5.5434c-1.226 3.0489-4.6265 9.2125-7.5564 13.697l-5.3273 8.1536-8.3102 8.6292c-9.6539 10.024-10.843 10.737-23.428 14.033l-9.4464 2.4743h-6.6625-6.6625l-1.3199-1.3199-1.3199-1.32 1.1703-0.0759c0.64365-0.0418-4.096-1.4688-10.532-3.1713l-11.703-3.0955-8.2177-4.4264-8.2176-4.4265-5.6532-5.495-5.6532-5.495-2.4048-5.4363c-3.2012-7.2368-7.1589-22.408-8.6219-33.051l-1.1853-8.6231 0.26693-13.761 0.26693-13.761 2.6178-2.8691c1.4398-1.578 3.2885-4.168 4.1083-5.7555l1.4906-2.8864-0.81835-3.2606c-0.4501-1.7933-1.4673-3.6734-2.2605-4.1779l-1.4422-0.91738 2.2285-0.0188 2.2285-0.0189-0.76133-1.2319-0.76133-1.2319h3.1144 3.1144l4.8687 2.5377 4.8687 2.5377 4.4083-0.827 4.4083-0.82699 0.0189 1.6769 0.0188 1.6769 1.1942-1.8478 1.1941-1.8478 0.0188 1.3445 0.0188 1.3446 5.2354-0.86964c2.8795-0.47829 10.389-1.7978 16.688-2.9322l11.452-2.0626 13.113-4.3411c7.2121-2.3876 17.686-6.5236 23.275-9.1912 5.589-2.6675 10.456-4.85 10.815-4.85 0.35906 0 3.8567-1.4457 7.7726-3.2126 8.5695-3.8668 12.055-5.3244 22.518-9.4161l8.0072-3.1314-0.1825-10.29c-0.1004-5.6595-0.52637-12.676-0.94667-15.591l-0.76417-5.3014-6.8692-13.697-6.8692-13.697-5.7347-6.0886c-10.72-11.41-28.96-22.598-38.83-23.836l-3.5566-0.446-1.4908-2.0388-1.4908-2.0388-0.87668 1.4185c-0.48218 0.78017-1.431 1.4185-2.1086 1.4185h-1.2319l0.68916-1.1151 0.68917-1.1151-7.2228 0.65494-7.2228 0.65494-0.85761-1.3876c-0.47168-0.7632-1.3176-1.3876-1.8799-1.3876h-1.0223l0.1711 2.0232 0.17109 2.0232-1.7142 0.60132-1.7142 0.60132 0.61944-3.2404 0.61946-3.2404h-1.5616-1.5616l0.64428 2.4637 0.64428 2.4637-1.6835 0.14588c-0.92594 0.08023-2.0467 0.09776-2.4906 0.03895-0.44388-0.05881-1.1194 0.70705-1.5012 1.7019l-0.69412 1.8089 2.733 0.12279 2.733 0.12279-3.0797 0.98628c-1.6938 0.54246-5.2263 1.0415-7.85 1.1091l-4.7704 0.12279 1.4533-1.7512 1.4533-1.7512-4.0742 0.4672c-15.061 1.727-42.843 15.066-55.405 26.602-2.4859 2.2828-6.5583 5.8135-9.0499 7.8461-2.4915 2.0326-5.7239 5.0379-7.183 6.6785s-3.4844 3.88-4.5007 4.9765c-4.3275 4.6691-12.584 17.656-15.843 24.92l-3.518 7.8409-3.9739 14.132-3.9739 14.132 0.01651 13.958c0.0086 7.6767 0.4121 17.652 0.89558 22.166l0.87907 8.2086 1.9801 1.6385 1.9801 1.6385-1.5398-0.77999c-0.84691-0.42899-1.5398-0.60848-1.5398-0.39885 0 2.3658 4.185 18.602 6.8432 26.549l3.3965 10.154 1.8919-1.531 1.8919-1.531-0.90971 1.5149-0.90971 1.5149 1.8933 5.5765 1.8933 5.5765 7.0951 11.171c11.887 18.716 21.579 29.763 35.076 39.976l7.7429 5.8593 7.6713 3.6201c4.2192 1.991 9.4855 3.9058 11.703 4.255 2.2173 0.3492 4.9673 1.1355 6.1112 1.7474l2.0798 1.1125 10.855 0.6986c5.9702 0.38422 14.458 0.68078 18.862 0.65902l8.0072-0.0395 6.1594-1.3488c3.3876-0.74183 7.2327-1.3434 8.5446-1.3369 5.0543 0.0253 23.869-6.1292 37.157-12.154l8.0158-3.6345 6.2028-6.4355c3.4115-3.5395 10.091-11.677 14.843-18.083l8.64-11.647 2.3828-6.9102 2.3828-6.9102 0.14906-24.637c0.0819-13.551-0.0769-25.746-0.35289-27.101l-0.50194-2.4631 2.5247-0.36188 2.5247-0.36187 1.641 11.075 1.641 11.075-0.84303 15.155c-0.46366 8.3353-1.4138 18.481-2.1114 22.546l-1.2684 7.3912-2.5842 4.3115c-1.4213 2.3714-4.5632 6.8875-6.9818 10.036-2.4187 3.1484-5.5063 7.2679-6.8614 9.1544-1.3551 1.8866-4.7548 6.1308-7.5551 9.4316l-5.0913 6.0015-7.2274 4.6867-7.2273 4.6867-12.319 4.3464c-6.7753 2.3905-15.09 5.2418-18.478 6.3361l-6.1594 1.9896-9.855 1.2526-9.855 1.2526-12.935-0.22863c-7.114-0.12576-14.043-0.43369-15.398-0.6843v-0.00003zm25.253-33.008c0-0.33876-0.27717-0.61593-0.61593-0.61593s-0.61594 0.27717-0.61594 0.61593c0 0.33877 0.27718 0.61594 0.61594 0.61594s0.61593-0.27717 0.61593-0.61594zm7.0598-1.4696c-1.1986-0.31233-2.8616-0.2918-3.6956 0.0457l-1.5164 0.61353 3.6956-0.0457 3.6956-0.0456-2.1792-0.56788v-0.00007zm-21.84-242.44c0-0.33876-0.27717-0.61593-0.61594-0.61593-0.33876 0-0.61593 0.27717-0.61593 0.61593s0.27717 0.61594 0.61593 0.61594c0.33877 0 0.61594-0.27717 0.61594-0.61594zm18.786-6.3593-1.5398-0.62134-1.5398 0.62134-1.5398 0.62134h3.0797 3.0797l-1.5398-0.62134zm4.6195 0.19991c0-0.33876-0.27717-0.61593-0.61594-0.61593-0.33876 0-0.61593 0.27717-0.61593 0.61593s0.27717 0.61594 0.61593 0.61594c0.33877 0 0.61594-0.27717 0.61594-0.61594zm-50.51 269.78c0-0.33877 0.27717-0.61594 0.61593-0.61594 0.33877 0 0.61594 0.27717 0.61594 0.61594 0 0.33876-0.27717 0.61593-0.61594 0.61593-0.33876 0-0.61593-0.27717-0.61593-0.61593zm-64.055-60.36c0-0.33876 0.27717-0.61593 0.61593-0.61593s0.61594 0.27717 0.61594 0.61593c0 0.33877-0.27717 0.61594-0.61594 0.61594-0.33876 0-0.61593-0.27717-0.61593-0.61594zm73.091-79.045 0.82125-0.82124 0.82125 0.82124 0.82124 0.82125h-1.6425-1.6425l0.82124-0.82125zm-5.7487-30.797c-0.45169-0.45168-0.82125-1.3029-0.82125-1.8916v-1.0703l5.2354-2.2172c2.8795-1.2194 9.6702-3.7368 15.09-5.594 5.4202-1.8573 13.458-5.0678 17.862-7.1346l8.0072-3.7577 5.2157-0.61741 5.2157-0.61742 1.3149-1.5844 1.315-1.5844-3.451-4.8906-3.451-4.8906-3.9853-2.7523c-2.1919-1.5137-7.7003-4.1007-12.241-5.7489l-8.2557-2.9966-6.853 7.2449-6.853 7.2449-3.5602 7.2928c-1.9581 4.011-3.9853 8.1243-4.5049 9.1406l-0.94472 1.8478-1.4381-0.33849-1.4381-0.33848 0.6551 1.06 0.65509 1.06-1.0736 3.5901-1.0736 3.5901-0.10594-2.1558-0.10581-2.1558h-1.061-1.061l0.59365-3.3876c0.3265-1.8632 2.7178-7.9815 5.3141-13.596l4.7205-10.209 7.7577-8.0907 7.7577-8.0907 5.7885 0.67975 5.7885 0.67975 7.7621 3.845c9.29 4.6019 11.994 7.0048 18.334 16.29l4.8266 7.0693v3.1864 3.1864l-3.5389-0.37121-3.5389-0.3712-4.7762 2.3074c-2.6269 1.2691-5.7388 2.7802-6.9152 3.358-1.1765 0.57783-2.9841 1.0506-4.017 1.0506s-4.2278 1.0573-7.1 2.3496c-5.8246 2.6208-32.441 11.201-34.746 11.201-0.81266 0-1.8471-0.36956-2.2988-0.82125zm-80.893-7.1859c0-0.33877 0.27717-0.61594 0.61594-0.61594 0.33876 0 0.61593 0.27717 0.61593 0.61594 0 0.33876-0.27717 0.61593-0.61593 0.61593s-0.61594-0.27717-0.61594-0.61593zm34.489-50.656c0-1.2098 4.4186-5.6119 9.1816-9.1474l2.4064-1.7862-2.4064 3.3489c-1.3235 1.8419-2.8005 3.3663-3.2823 3.3876-0.48176 0.02129-2.0062 1.2519-3.3876 2.7347l-2.5117 2.696v-1.2337zm19.754-16.985c0.9921-0.95702 4.0212-2.6127 6.7313-3.6793l4.9275-1.9392-4.265 3.6793-4.265 3.6793h-2.4663-2.4663l1.8038-1.74zm19.666-8.7308c0-0.33876 0.27717-0.61594 0.61593-0.61594 0.33877 0 0.61594 0.27717 0.61594 0.61594 0 0.33876-0.27717 0.61593-0.61594 0.61593-0.33876 0-0.61593-0.27717-0.61593-0.61593z"/>
  <path class="cls-1 stem"
    style="--item: 2; --color: rgb(254, 219, 59)" d="m145.24 318.94c-1.3551-0.25062-7.1756-1.6078-12.935-3.016l-10.471-2.5603-7.3912-3.6986c-4.0652-2.0342-11.114-6.4433-15.665-9.798l-8.2735-6.0995-8.8655-9.4612-8.8655-9.4612-8.5488-12.935c-13.04-19.73-19.254-35.08-25.425-62.81l-2.33-10.471-0.77488-14.782-0.7749-14.782 1.818-11.087c2.0596-12.561 5.8045-26.898 7.1862-27.512 0.50815-0.22586 0.94131-1.3345 0.96257-2.4637 0.04693-2.4917 5.8272-14.313 9.5662-19.564 1.4926-2.0962 2.7138-4.1725 2.7138-4.6141 0-0.44158 2.6863-4.1228 5.9696-8.1805l5.9696-7.3777 10.353-8.7703c13.206-11.195 21.123-16.242 34.753-22.152l10.94-4.7451 12.683-3.0556c6.9756-1.6806 13.852-3.0556 15.281-3.0556h2.5984l0.0188-1.5398 0.0188-1.5398 1.0919 1.7245 1.0919 1.7245 3.4686-2.7284 3.4686-2.7284 8.0473 0.7574c4.426 0.41657 11.665 1.2646 16.088 1.8844l8.0404 1.127 8.5898 3.6087c16.719 7.0238 22.994 11.172 33.843 22.37l5.5434 5.7219 5.8072 11.602 5.8072 11.602 1.8254 6.7753c1.9821 7.3567 5.4398 34.52 4.6832 36.789-0.25639 0.76916-1.0828 1.3985-1.8364 1.3985-0.75362 0-9.7155 3.1183-19.915 6.9295l-18.545 6.9296-11.087 5.5681-11.087 5.5681-13.84 4.7088-13.84 4.7088-19.326 3.7354-19.326 3.7353h-8.2663-8.2663l-4.4236 4.8964-4.4236 4.8964-0.80447 3.2053-0.80447 3.2053 0.57611 12.954 0.57611 12.954 1.3519 0.83553c0.74354 0.45953 1.9197 2.329 2.6138 4.1545l1.2619 3.319-1.1848 0.73225-1.1848 0.73223v-2.1258-2.1258l-0.82195 0.82195-0.82195 0.82194 2.2135 9.5463 2.2135 9.5463 2.521 5.2806 2.521 5.2806 7.0901 6.4221c7.7344 7.0057 15.089 11.966 17.742 11.966 0.92934 0 1.9988 0.5001 2.3765 1.1113 0.37776 0.61123 4.5539 2.2859 9.2802 3.7215l8.5934 2.6102 4.651-0.002c2.558-0.001 8.2542-0.203 12.658-0.44798l8.0072-0.44542 3.3279-1.3725 3.3279-1.3725 9.2629-8.7989 9.2629-8.7989 5.0195-8.7062 5.0195-8.7062 2.5106-7.4526 2.5106-7.4526-0.62165-11.982-0.62165-11.982 1.4425-1.164c0.79337-0.64019 4.4914-2.1379 8.2178-3.3282 7.3526-2.3486 9.8826-3.3963 15.13-6.265l3.4269-1.8736 4.8889-0.4475 4.8889-0.44752 1.1452 2.1398 1.1452 2.1398-0.83795 1.2946-0.83795 1.2946-6.7753 1.4606c-3.7264 0.80332-10.021 2.3749-13.987 3.4924l-7.2117 2.0319-0.61658 1.6068-0.61659 1.6068-0.93761-0.57947-0.9376-0.57947-0.62082 15.061-0.62081 15.061-2.2292 5.5434c-1.226 3.0489-4.6265 9.2125-7.5564 13.697l-5.3273 8.1536-8.3102 8.6292c-9.6539 10.024-10.843 10.737-23.428 14.033l-9.4464 2.4743h-6.6625-6.6625l-1.3199-1.3199-1.3199-1.32 1.1703-0.0759c0.64365-0.0418-4.096-1.4688-10.532-3.1713l-11.703-3.0955-8.2177-4.4264-8.2176-4.4265-5.6532-5.495-5.6532-5.495-2.4048-5.4363c-3.2012-7.2368-7.1589-22.408-8.6219-33.051l-1.1853-8.6231 0.26693-13.761 0.26693-13.761 2.6178-2.8691c1.4398-1.578 3.2885-4.168 4.1083-5.7555l1.4906-2.8864-0.81835-3.2606c-0.4501-1.7933-1.4673-3.6734-2.2605-4.1779l-1.4422-0.91738 2.2285-0.0188 2.2285-0.0189-0.76133-1.2319-0.76133-1.2319h3.1144 3.1144l4.8687 2.5377 4.8687 2.5377 4.4083-0.827 4.4083-0.82699 0.0189 1.6769 0.0188 1.6769 1.1942-1.8478 1.1941-1.8478 0.0188 1.3445 0.0188 1.3446 5.2354-0.86964c2.8795-0.47829 10.389-1.7978 16.688-2.9322l11.452-2.0626 13.113-4.3411c7.2121-2.3876 17.686-6.5236 23.275-9.1912 5.589-2.6675 10.456-4.85 10.815-4.85 0.35906 0 3.8567-1.4457 7.7726-3.2126 8.5695-3.8668 12.055-5.3244 22.518-9.4161l8.0072-3.1314-0.1825-10.29c-0.1004-5.6595-0.52637-12.676-0.94667-15.591l-0.76417-5.3014-6.8692-13.697-6.8692-13.697-5.7347-6.0886c-10.72-11.41-28.96-22.598-38.83-23.836l-3.5566-0.446-1.4908-2.0388-1.4908-2.0388-0.87668 1.4185c-0.48218 0.78017-1.431 1.4185-2.1086 1.4185h-1.2319l0.68916-1.1151 0.68917-1.1151-7.2228 0.65494-7.2228 0.65494-0.85761-1.3876c-0.47168-0.7632-1.3176-1.3876-1.8799-1.3876h-1.0223l0.1711 2.0232 0.17109 2.0232-1.7142 0.60132-1.7142 0.60132 0.61944-3.2404 0.61946-3.2404h-1.5616-1.5616l0.64428 2.4637 0.64428 2.4637-1.6835 0.14588c-0.92594 0.08023-2.0467 0.09776-2.4906 0.03895-0.44388-0.05881-1.1194 0.70705-1.5012 1.7019l-0.69412 1.8089 2.733 0.12279 2.733 0.12279-3.0797 0.98628c-1.6938 0.54246-5.2263 1.0415-7.85 1.1091l-4.7704 0.12279 1.4533-1.7512 1.4533-1.7512-4.0742 0.4672c-15.061 1.727-42.843 15.066-55.405 26.602-2.4859 2.2828-6.5583 5.8135-9.0499 7.8461-2.4915 2.0326-5.7239 5.0379-7.183 6.6785s-3.4844 3.88-4.5007 4.9765c-4.3275 4.6691-12.584 17.656-15.843 24.92l-3.518 7.8409-3.9739 14.132-3.9739 14.132 0.01651 13.958c0.0086 7.6767 0.4121 17.652 0.89558 22.166l0.87907 8.2086 1.9801 1.6385 1.9801 1.6385-1.5398-0.77999c-0.84691-0.42899-1.5398-0.60848-1.5398-0.39885 0 2.3658 4.185 18.602 6.8432 26.549l3.3965 10.154 1.8919-1.531 1.8919-1.531-0.90971 1.5149-0.90971 1.5149 1.8933 5.5765 1.8933 5.5765 7.0951 11.171c11.887 18.716 21.579 29.763 35.076 39.976l7.7429 5.8593 7.6713 3.6201c4.2192 1.991 9.4855 3.9058 11.703 4.255 2.2173 0.3492 4.9673 1.1355 6.1112 1.7474l2.0798 1.1125 10.855 0.6986c5.9702 0.38422 14.458 0.68078 18.862 0.65902l8.0072-0.0395 6.1594-1.3488c3.3876-0.74183 7.2327-1.3434 8.5446-1.3369 5.0543 0.0253 23.869-6.1292 37.157-12.154l8.0158-3.6345 6.2028-6.4355c3.4115-3.5395 10.091-11.677 14.843-18.083l8.64-11.647 2.3828-6.9102 2.3828-6.9102 0.14906-24.637c0.0819-13.551-0.0769-25.746-0.35289-27.101l-0.50194-2.4631 2.5247-0.36188 2.5247-0.36187 1.641 11.075 1.641 11.075-0.84303 15.155c-0.46366 8.3353-1.4138 18.481-2.1114 22.546l-1.2684 7.3912-2.5842 4.3115c-1.4213 2.3714-4.5632 6.8875-6.9818 10.036-2.4187 3.1484-5.5063 7.2679-6.8614 9.1544-1.3551 1.8866-4.7548 6.1308-7.5551 9.4316l-5.0913 6.0015-7.2274 4.6867-7.2273 4.6867-12.319 4.3464c-6.7753 2.3905-15.09 5.2418-18.478 6.3361l-6.1594 1.9896-9.855 1.2526-9.855 1.2526-12.935-0.22863c-7.114-0.12576-14.043-0.43369-15.398-0.6843v-0.00003zm25.253-33.008c0-0.33876-0.27717-0.61593-0.61593-0.61593s-0.61594 0.27717-0.61594 0.61593c0 0.33877 0.27718 0.61594 0.61594 0.61594s0.61593-0.27717 0.61593-0.61594zm7.0598-1.4696c-1.1986-0.31233-2.8616-0.2918-3.6956 0.0457l-1.5164 0.61353 3.6956-0.0457 3.6956-0.0456-2.1792-0.56788v-0.00007zm-21.84-242.44c0-0.33876-0.27717-0.61593-0.61594-0.61593-0.33876 0-0.61593 0.27717-0.61593 0.61593s0.27717 0.61594 0.61593 0.61594c0.33877 0 0.61594-0.27717 0.61594-0.61594zm18.786-6.3593-1.5398-0.62134-1.5398 0.62134-1.5398 0.62134h3.0797 3.0797l-1.5398-0.62134zm4.6195 0.19991c0-0.33876-0.27717-0.61593-0.61594-0.61593-0.33876 0-0.61593 0.27717-0.61593 0.61593s0.27717 0.61594 0.61593 0.61594c0.33877 0 0.61594-0.27717 0.61594-0.61594zm-50.51 269.78c0-0.33877 0.27717-0.61594 0.61593-0.61594 0.33877 0 0.61594 0.27717 0.61594 0.61594 0 0.33876-0.27717 0.61593-0.61594 0.61593-0.33876 0-0.61593-0.27717-0.61593-0.61593zm-64.055-60.36c0-0.33876 0.27717-0.61593 0.61593-0.61593s0.61594 0.27717 0.61594 0.61593c0 0.33877-0.27717 0.61594-0.61594 0.61594-0.33876 0-0.61593-0.27717-0.61593-0.61594zm73.091-79.045 0.82125-0.82124 0.82125 0.82124 0.82124 0.82125h-1.6425-1.6425l0.82124-0.82125zm-5.7487-30.797c-0.45169-0.45168-0.82125-1.3029-0.82125-1.8916v-1.0703l5.2354-2.2172c2.8795-1.2194 9.6702-3.7368 15.09-5.594 5.4202-1.8573 13.458-5.0678 17.862-7.1346l8.0072-3.7577 5.2157-0.61741 5.2157-0.61742 1.3149-1.5844 1.315-1.5844-3.451-4.8906-3.451-4.8906-3.9853-2.7523c-2.1919-1.5137-7.7003-4.1007-12.241-5.7489l-8.2557-2.9966-6.853 7.2449-6.853 7.2449-3.5602 7.2928c-1.9581 4.011-3.9853 8.1243-4.5049 9.1406l-0.94472 1.8478-1.4381-0.33849-1.4381-0.33848 0.6551 1.06 0.65509 1.06-1.0736 3.5901-1.0736 3.5901-0.10594-2.1558-0.10581-2.1558h-1.061-1.061l0.59365-3.3876c0.3265-1.8632 2.7178-7.9815 5.3141-13.596l4.7205-10.209 7.7577-8.0907 7.7577-8.0907 5.7885 0.67975 5.7885 0.67975 7.7621 3.845c9.29 4.6019 11.994 7.0048 18.334 16.29l4.8266 7.0693v3.1864 3.1864l-3.5389-0.37121-3.5389-0.3712-4.7762 2.3074c-2.6269 1.2691-5.7388 2.7802-6.9152 3.358-1.1765 0.57783-2.9841 1.0506-4.017 1.0506s-4.2278 1.0573-7.1 2.3496c-5.8246 2.6208-32.441 11.201-34.746 11.201-0.81266 0-1.8471-0.36956-2.2988-0.82125zm-80.893-7.1859c0-0.33877 0.27717-0.61594 0.61594-0.61594 0.33876 0 0.61593 0.27717 0.61593 0.61594 0 0.33876-0.27717 0.61593-0.61593 0.61593s-0.61594-0.27717-0.61594-0.61593zm34.489-50.656c0-1.2098 4.4186-5.6119 9.1816-9.1474l2.4064-1.7862-2.4064 3.3489c-1.3235 1.8419-2.8005 3.3663-3.2823 3.3876-0.48176 0.02129-2.0062 1.2519-3.3876 2.7347l-2.5117 2.696v-1.2337zm19.754-16.985c0.9921-0.95702 4.0212-2.6127 6.7313-3.6793l4.9275-1.9392-4.265 3.6793-4.265 3.6793h-2.4663-2.4663l1.8038-1.74zm19.666-8.7308c0-0.33876 0.27717-0.61594 0.61593-0.61594 0.33877 0 0.61594 0.27717 0.61594 0.61594 0 0.33876-0.27717 0.61593-0.61594 0.61593-0.33876 0-0.61593-0.27717-0.61593-0.61593z"/>
  <path class="cls-1 stem"
    style="--item: 3; --color: rgb(49, 191, 186)" d="m145.24 318.94c-1.3551-0.25062-7.1756-1.6078-12.935-3.016l-10.471-2.5603-7.3912-3.6986c-4.0652-2.0342-11.114-6.4433-15.665-9.798l-8.2735-6.0995-8.8655-9.4612-8.8655-9.4612-8.5488-12.935c-13.04-19.73-19.254-35.08-25.425-62.81l-2.33-10.471-0.77488-14.782-0.7749-14.782 1.818-11.087c2.0596-12.561 5.8045-26.898 7.1862-27.512 0.50815-0.22586 0.94131-1.3345 0.96257-2.4637 0.04693-2.4917 5.8272-14.313 9.5662-19.564 1.4926-2.0962 2.7138-4.1725 2.7138-4.6141 0-0.44158 2.6863-4.1228 5.9696-8.1805l5.9696-7.3777 10.353-8.7703c13.206-11.195 21.123-16.242 34.753-22.152l10.94-4.7451 12.683-3.0556c6.9756-1.6806 13.852-3.0556 15.281-3.0556h2.5984l0.0188-1.5398 0.0188-1.5398 1.0919 1.7245 1.0919 1.7245 3.4686-2.7284 3.4686-2.7284 8.0473 0.7574c4.426 0.41657 11.665 1.2646 16.088 1.8844l8.0404 1.127 8.5898 3.6087c16.719 7.0238 22.994 11.172 33.843 22.37l5.5434 5.7219 5.8072 11.602 5.8072 11.602 1.8254 6.7753c1.9821 7.3567 5.4398 34.52 4.6832 36.789-0.25639 0.76916-1.0828 1.3985-1.8364 1.3985-0.75362 0-9.7155 3.1183-19.915 6.9295l-18.545 6.9296-11.087 5.5681-11.087 5.5681-13.84 4.7088-13.84 4.7088-19.326 3.7354-19.326 3.7353h-8.2663-8.2663l-4.4236 4.8964-4.4236 4.8964-0.80447 3.2053-0.80447 3.2053 0.57611 12.954 0.57611 12.954 1.3519 0.83553c0.74354 0.45953 1.9197 2.329 2.6138 4.1545l1.2619 3.319-1.1848 0.73225-1.1848 0.73223v-2.1258-2.1258l-0.82195 0.82195-0.82195 0.82194 2.2135 9.5463 2.2135 9.5463 2.521 5.2806 2.521 5.2806 7.0901 6.4221c7.7344 7.0057 15.089 11.966 17.742 11.966 0.92934 0 1.9988 0.5001 2.3765 1.1113 0.37776 0.61123 4.5539 2.2859 9.2802 3.7215l8.5934 2.6102 4.651-0.002c2.558-0.001 8.2542-0.203 12.658-0.44798l8.0072-0.44542 3.3279-1.3725 3.3279-1.3725 9.2629-8.7989 9.2629-8.7989 5.0195-8.7062 5.0195-8.7062 2.5106-7.4526 2.5106-7.4526-0.62165-11.982-0.62165-11.982 1.4425-1.164c0.79337-0.64019 4.4914-2.1379 8.2178-3.3282 7.3526-2.3486 9.8826-3.3963 15.13-6.265l3.4269-1.8736 4.8889-0.4475 4.8889-0.44752 1.1452 2.1398 1.1452 2.1398-0.83795 1.2946-0.83795 1.2946-6.7753 1.4606c-3.7264 0.80332-10.021 2.3749-13.987 3.4924l-7.2117 2.0319-0.61658 1.6068-0.61659 1.6068-0.93761-0.57947-0.9376-0.57947-0.62082 15.061-0.62081 15.061-2.2292 5.5434c-1.226 3.0489-4.6265 9.2125-7.5564 13.697l-5.3273 8.1536-8.3102 8.6292c-9.6539 10.024-10.843 10.737-23.428 14.033l-9.4464 2.4743h-6.6625-6.6625l-1.3199-1.3199-1.3199-1.32 1.1703-0.0759c0.64365-0.0418-4.096-1.4688-10.532-3.1713l-11.703-3.0955-8.2177-4.4264-8.2176-4.4265-5.6532-5.495-5.6532-5.495-2.4048-5.4363c-3.2012-7.2368-7.1589-22.408-8.6219-33.051l-1.1853-8.6231 0.26693-13.761 0.26693-13.761 2.6178-2.8691c1.4398-1.578 3.2885-4.168 4.1083-5.7555l1.4906-2.8864-0.81835-3.2606c-0.4501-1.7933-1.4673-3.6734-2.2605-4.1779l-1.4422-0.91738 2.2285-0.0188 2.2285-0.0189-0.76133-1.2319-0.76133-1.2319h3.1144 3.1144l4.8687 2.5377 4.8687 2.5377 4.4083-0.827 4.4083-0.82699 0.0189 1.6769 0.0188 1.6769 1.1942-1.8478 1.1941-1.8478 0.0188 1.3445 0.0188 1.3446 5.2354-0.86964c2.8795-0.47829 10.389-1.7978 16.688-2.9322l11.452-2.0626 13.113-4.3411c7.2121-2.3876 17.686-6.5236 23.275-9.1912 5.589-2.6675 10.456-4.85 10.815-4.85 0.35906 0 3.8567-1.4457 7.7726-3.2126 8.5695-3.8668 12.055-5.3244 22.518-9.4161l8.0072-3.1314-0.1825-10.29c-0.1004-5.6595-0.52637-12.676-0.94667-15.591l-0.76417-5.3014-6.8692-13.697-6.8692-13.697-5.7347-6.0886c-10.72-11.41-28.96-22.598-38.83-23.836l-3.5566-0.446-1.4908-2.0388-1.4908-2.0388-0.87668 1.4185c-0.48218 0.78017-1.431 1.4185-2.1086 1.4185h-1.2319l0.68916-1.1151 0.68917-1.1151-7.2228 0.65494-7.2228 0.65494-0.85761-1.3876c-0.47168-0.7632-1.3176-1.3876-1.8799-1.3876h-1.0223l0.1711 2.0232 0.17109 2.0232-1.7142 0.60132-1.7142 0.60132 0.61944-3.2404 0.61946-3.2404h-1.5616-1.5616l0.64428 2.4637 0.64428 2.4637-1.6835 0.14588c-0.92594 0.08023-2.0467 0.09776-2.4906 0.03895-0.44388-0.05881-1.1194 0.70705-1.5012 1.7019l-0.69412 1.8089 2.733 0.12279 2.733 0.12279-3.0797 0.98628c-1.6938 0.54246-5.2263 1.0415-7.85 1.1091l-4.7704 0.12279 1.4533-1.7512 1.4533-1.7512-4.0742 0.4672c-15.061 1.727-42.843 15.066-55.405 26.602-2.4859 2.2828-6.5583 5.8135-9.0499 7.8461-2.4915 2.0326-5.7239 5.0379-7.183 6.6785s-3.4844 3.88-4.5007 4.9765c-4.3275 4.6691-12.584 17.656-15.843 24.92l-3.518 7.8409-3.9739 14.132-3.9739 14.132 0.01651 13.958c0.0086 7.6767 0.4121 17.652 0.89558 22.166l0.87907 8.2086 1.9801 1.6385 1.9801 1.6385-1.5398-0.77999c-0.84691-0.42899-1.5398-0.60848-1.5398-0.39885 0 2.3658 4.185 18.602 6.8432 26.549l3.3965 10.154 1.8919-1.531 1.8919-1.531-0.90971 1.5149-0.90971 1.5149 1.8933 5.5765 1.8933 5.5765 7.0951 11.171c11.887 18.716 21.579 29.763 35.076 39.976l7.7429 5.8593 7.6713 3.6201c4.2192 1.991 9.4855 3.9058 11.703 4.255 2.2173 0.3492 4.9673 1.1355 6.1112 1.7474l2.0798 1.1125 10.855 0.6986c5.9702 0.38422 14.458 0.68078 18.862 0.65902l8.0072-0.0395 6.1594-1.3488c3.3876-0.74183 7.2327-1.3434 8.5446-1.3369 5.0543 0.0253 23.869-6.1292 37.157-12.154l8.0158-3.6345 6.2028-6.4355c3.4115-3.5395 10.091-11.677 14.843-18.083l8.64-11.647 2.3828-6.9102 2.3828-6.9102 0.14906-24.637c0.0819-13.551-0.0769-25.746-0.35289-27.101l-0.50194-2.4631 2.5247-0.36188 2.5247-0.36187 1.641 11.075 1.641 11.075-0.84303 15.155c-0.46366 8.3353-1.4138 18.481-2.1114 22.546l-1.2684 7.3912-2.5842 4.3115c-1.4213 2.3714-4.5632 6.8875-6.9818 10.036-2.4187 3.1484-5.5063 7.2679-6.8614 9.1544-1.3551 1.8866-4.7548 6.1308-7.5551 9.4316l-5.0913 6.0015-7.2274 4.6867-7.2273 4.6867-12.319 4.3464c-6.7753 2.3905-15.09 5.2418-18.478 6.3361l-6.1594 1.9896-9.855 1.2526-9.855 1.2526-12.935-0.22863c-7.114-0.12576-14.043-0.43369-15.398-0.6843v-0.00003zm25.253-33.008c0-0.33876-0.27717-0.61593-0.61593-0.61593s-0.61594 0.27717-0.61594 0.61593c0 0.33877 0.27718 0.61594 0.61594 0.61594s0.61593-0.27717 0.61593-0.61594zm7.0598-1.4696c-1.1986-0.31233-2.8616-0.2918-3.6956 0.0457l-1.5164 0.61353 3.6956-0.0457 3.6956-0.0456-2.1792-0.56788v-0.00007zm-21.84-242.44c0-0.33876-0.27717-0.61593-0.61594-0.61593-0.33876 0-0.61593 0.27717-0.61593 0.61593s0.27717 0.61594 0.61593 0.61594c0.33877 0 0.61594-0.27717 0.61594-0.61594zm18.786-6.3593-1.5398-0.62134-1.5398 0.62134-1.5398 0.62134h3.0797 3.0797l-1.5398-0.62134zm4.6195 0.19991c0-0.33876-0.27717-0.61593-0.61594-0.61593-0.33876 0-0.61593 0.27717-0.61593 0.61593s0.27717 0.61594 0.61593 0.61594c0.33877 0 0.61594-0.27717 0.61594-0.61594zm-50.51 269.78c0-0.33877 0.27717-0.61594 0.61593-0.61594 0.33877 0 0.61594 0.27717 0.61594 0.61594 0 0.33876-0.27717 0.61593-0.61594 0.61593-0.33876 0-0.61593-0.27717-0.61593-0.61593zm-64.055-60.36c0-0.33876 0.27717-0.61593 0.61593-0.61593s0.61594 0.27717 0.61594 0.61593c0 0.33877-0.27717 0.61594-0.61594 0.61594-0.33876 0-0.61593-0.27717-0.61593-0.61594zm73.091-79.045 0.82125-0.82124 0.82125 0.82124 0.82124 0.82125h-1.6425-1.6425l0.82124-0.82125zm-5.7487-30.797c-0.45169-0.45168-0.82125-1.3029-0.82125-1.8916v-1.0703l5.2354-2.2172c2.8795-1.2194 9.6702-3.7368 15.09-5.594 5.4202-1.8573 13.458-5.0678 17.862-7.1346l8.0072-3.7577 5.2157-0.61741 5.2157-0.61742 1.3149-1.5844 1.315-1.5844-3.451-4.8906-3.451-4.8906-3.9853-2.7523c-2.1919-1.5137-7.7003-4.1007-12.241-5.7489l-8.2557-2.9966-6.853 7.2449-6.853 7.2449-3.5602 7.2928c-1.9581 4.011-3.9853 8.1243-4.5049 9.1406l-0.94472 1.8478-1.4381-0.33849-1.4381-0.33848 0.6551 1.06 0.65509 1.06-1.0736 3.5901-1.0736 3.5901-0.10594-2.1558-0.10581-2.1558h-1.061-1.061l0.59365-3.3876c0.3265-1.8632 2.7178-7.9815 5.3141-13.596l4.7205-10.209 7.7577-8.0907 7.7577-8.0907 5.7885 0.67975 5.7885 0.67975 7.7621 3.845c9.29 4.6019 11.994 7.0048 18.334 16.29l4.8266 7.0693v3.1864 3.1864l-3.5389-0.37121-3.5389-0.3712-4.7762 2.3074c-2.6269 1.2691-5.7388 2.7802-6.9152 3.358-1.1765 0.57783-2.9841 1.0506-4.017 1.0506s-4.2278 1.0573-7.1 2.3496c-5.8246 2.6208-32.441 11.201-34.746 11.201-0.81266 0-1.8471-0.36956-2.2988-0.82125zm-80.893-7.1859c0-0.33877 0.27717-0.61594 0.61594-0.61594 0.33876 0 0.61593 0.27717 0.61593 0.61594 0 0.33876-0.27717 0.61593-0.61593 0.61593s-0.61594-0.27717-0.61594-0.61593zm34.489-50.656c0-1.2098 4.4186-5.6119 9.1816-9.1474l2.4064-1.7862-2.4064 3.3489c-1.3235 1.8419-2.8005 3.3663-3.2823 3.3876-0.48176 0.02129-2.0062 1.2519-3.3876 2.7347l-2.5117 2.696v-1.2337zm19.754-16.985c0.9921-0.95702 4.0212-2.6127 6.7313-3.6793l4.9275-1.9392-4.265 3.6793-4.265 3.6793h-2.4663-2.4663l1.8038-1.74zm19.666-8.7308c0-0.33876 0.27717-0.61594 0.61593-0.61594 0.33877 0 0.61594 0.27717 0.61594 0.61594 0 0.33876-0.27717 0.61593-0.61594 0.61593-0.33876 0-0.61593-0.27717-0.61593-0.61593z"/>

</svg>