<svg
  class="letter-i"
  data-name="Layer 1"
  xmlns="http://www.w3.org/2000/svg"
  viewBox="0 0 800 800"
>
  <style>
    .letter-i {
      width: 80vh;
      height: 80vh;
    }

    .cls-4 {
      fill: none;
      stroke: #000;
      stroke-miterlimit: 10;
      stroke-width: 50px;
      stroke-linecap: round;
      stroke-dasharray: 8500;
      animation: lines4 4s infinite calc(var(--item) * 1s);
    }

    .dot {
      stroke-dasharray: 500;
      stroke: var(--color);
    }

    .stem {
      stroke: var(--color);
    }

    @keyframes lines4 {
      100% {
        stroke-dashoffset: 50500;
      }
    }
  </style>
    <g transform="translate(0.000000,380.000000) scale(0.0300000,-0.0300000)">
      <path 
        class="cls-4 stem"
        style="--item: 1; --color: rgb(246, 9, 149)"
        d="M2190 10473 c0 -27 36 -207 61 -308 48 -189 106 -329 197 -470 97
        -151 118 -178 186 -241 219 -203 596 -259 1195 -178 62 8 116 13 118 10 3 -3
        -31 -86 -76 -185 -721 -1595 -1134 -2934 -1248 -4051 -21 -212 -24 -721 -5
        -860 55 -386 166 -688 371 -1005 147 -227 270 -372 423 -501 238 -199 477
        -316 781 -380 151 -32 474 -44 634 -25 398 49 768 196 1168 463 485 323 952
        789 1459 1458 l118 154 -9 -144 c-33 -582 38 -1052 211 -1395 126 -248 272
        -438 428 -555 305 -230 812 -311 1246 -201 434 111 846 425 953 726 24 68 35
        201 25 296 -9 81 -18 98 -41 79 -23 -19 -31 -3 -39 81 -5 46 -11 69 -20 69 -7
        0 -42 -22 -78 -49 -242 -184 -491 -313 -697 -363 -99 -24 -275 -28 -356 -9
        -126 31 -256 123 -307 218 -145 269 -153 990 -23 2040 82 660 233 1435 437
        2248 273 1089 561 1864 836 2254 53 76 48 85 -45 76 -76 -7 -78 -1 -23 74 21
        30 37 59 33 64 -7 11 -225 1 -393 -19 -250 -29 -429 -79 -616 -169 -196 -95
        -356 -236 -457 -403 -228 -377 -473 -1287 -768 -2847 l-60 -320 -129 -260
        c-316 -636 -634 -1142 -981 -1560 -117 -141 -424 -446 -549 -545 -364 -289
        -716 -442 -1078 -469 -279 -21 -511 37 -717 180 -99 68 -246 224 -313 332 -95
        153 -167 401 -193 672 -14 145 -6 486 16 695 126 1183 682 2764 1657 4713 93
        186 166 342 163 348 -4 6 -33 7 -72 3 l-65 -7 36 71 c20 41 32 74 26 77 -5 3
        -110 -3 -232 -14 -633 -58 -1497 -129 -1857 -152 -223 -14 -533 -7 -656 15
        -213 38 -438 126 -588 229 -65 45 -87 55 -87 40z"
      />
      <path 
        class="cls-4 stem"
        style="--item: 2; --color: rgb(254, 219, 59)"
        d="M2290 10573 c0 -27 36 -207 61 -308 48 -189 106 -329 197 -470 97
        -151 118 -178 186 -241 219 -203 596 -259 1195 -178 62 8 116 13 118 10 3 -3
        -31 -86 -76 -185 -721 -1595 -1134 -2934 -1248 -4051 -21 -212 -24 -721 -5
        -860 55 -386 166 -688 371 -1005 147 -227 270 -372 423 -501 238 -199 477
        -316 781 -380 151 -32 474 -44 634 -25 398 49 768 196 1168 463 485 323 952
        789 1459 1458 l118 154 -9 -144 c-33 -582 38 -1052 211 -1395 126 -248 272
        -438 428 -555 305 -230 812 -311 1246 -201 434 111 846 425 953 726 24 68 35
        201 25 296 -9 81 -18 98 -41 79 -23 -19 -31 -3 -39 81 -5 46 -11 69 -20 69 -7
        0 -42 -22 -78 -49 -242 -184 -491 -313 -697 -363 -99 -24 -275 -28 -356 -9
        -126 31 -256 123 -307 218 -145 269 -153 990 -23 2040 82 660 233 1435 437
        2248 273 1089 561 1864 836 2254 53 76 48 85 -45 76 -76 -7 -78 -1 -23 74 21
        30 37 59 33 64 -7 11 -225 1 -393 -19 -250 -29 -429 -79 -616 -169 -196 -95
        -356 -236 -457 -403 -228 -377 -473 -1287 -768 -2847 l-60 -320 -129 -260
        c-316 -636 -634 -1142 -981 -1560 -117 -141 -424 -446 -549 -545 -364 -289
        -716 -442 -1078 -469 -279 -21 -511 37 -717 180 -99 68 -246 224 -313 332 -95
        153 -167 401 -193 672 -14 145 -6 486 16 695 126 1183 682 2764 1657 4713 93
        186 166 342 163 348 -4 6 -33 7 -72 3 l-65 -7 36 71 c20 41 32 74 26 77 -5 3
        -110 -3 -232 -14 -633 -58 -1497 -129 -1857 -152 -223 -14 -533 -7 -656 15
        -213 38 -438 126 -588 229 -65 45 -87 55 -87 40z"
      />
      
      <path 
        class="cls-4 stem"
        style="--item: 3; --color: rgb(49, 191, 186)"
        d="M2390 10673 c0 -27 36 -207 61 -308 48 -189 106 -329 197 -470 97
        -151 118 -178 186 -241 219 -203 596 -259 1195 -178 62 8 116 13 118 10 3 -3
        -31 -86 -76 -185 -721 -1595 -1134 -2934 -1248 -4051 -21 -212 -24 -721 -5
        -860 55 -386 166 -688 371 -1005 147 -227 270 -372 423 -501 238 -199 477
        -316 781 -380 151 -32 474 -44 634 -25 398 49 768 196 1168 463 485 323 952
        789 1459 1458 l118 154 -9 -144 c-33 -582 38 -1052 211 -1395 126 -248 272
        -438 428 -555 305 -230 812 -311 1246 -201 434 111 846 425 953 726 24 68 35
        201 25 296 -9 81 -18 98 -41 79 -23 -19 -31 -3 -39 81 -5 46 -11 69 -20 69 -7
        0 -42 -22 -78 -49 -242 -184 -491 -313 -697 -363 -99 -24 -275 -28 -356 -9
        -126 31 -256 123 -307 218 -145 269 -153 990 -23 2040 82 660 233 1435 437
        2248 273 1089 561 1864 836 2254 53 76 48 85 -45 76 -76 -7 -78 -1 -23 74 21
        30 37 59 33 64 -7 11 -225 1 -393 -19 -250 -29 -429 -79 -616 -169 -196 -95
        -356 -236 -457 -403 -228 -377 -473 -1287 -768 -2847 l-60 -320 -129 -260
        c-316 -636 -634 -1142 -981 -1560 -117 -141 -424 -446 -549 -545 -364 -289
        -716 -442 -1078 -469 -279 -21 -511 37 -717 180 -99 68 -246 224 -313 332 -95
        153 -167 401 -193 672 -14 145 -6 486 16 695 126 1183 682 2764 1657 4713 93
        186 166 342 163 348 -4 6 -33 7 -72 3 l-65 -7 36 71 c20 41 32 74 26 77 -5 3
        -110 -3 -232 -14 -633 -58 -1497 -129 -1857 -152 -223 -14 -533 -7 -656 15
        -213 38 -438 126 -588 229 -65 45 -87 55 -87 40z"
      />
    </g>
</svg>