<svg
  class="letter-i"
  data-name="Layer 1"
  xmlns="http://www.w3.org/2000/svg"
  viewBox="0 0 800 800"
>
  <style>
    .letter-i {
      width: 80vh;
      height: 80vh;
    }

    .cls-1 {
      fill: none;
      stroke: #000;
      stroke-miterlimit: 10;
      stroke-width: 1px;
      stroke-linecap: round;
      stroke-miterlimit: 10;
      stroke-dasharray: 1500;
      animation: lines 4s infinite calc(var(--item) * 1s);
    }

    .dot {
      stroke-dasharray: 500;
      stroke: var(--color);
    }

    .stem {
      stroke: var(--color);
    }

    @keyframes lines {
      100% {
        stroke-dashoffset: 3000;
      }
    }
  </style>
  <path id="path3404" class="cls-1 stem"
    style="--item: 1; --color: rgb(246, 9, 149)" d="m136.32 177.43c-1.8759-2.8343-6.5657-9.482-10.422-14.773-8.0093-10.989-9.637-13.799-22.54-38.908-11.416-22.22-13.957-25.794-16.309-22.96-0.9145 1.1019-2.3384 1.8686-3.1642 1.7038-4.572-0.91236-17.91 30.483-22.934 53.981-2.7774 12.991-4.9662 18.526-7.5241 19.024-4.6122 0.89878-4.5756 1.0343-8.2927-30.705-1.334-11.39-4.687-55.622-5.468-72.141-1.278-27.016-1.914-37.193-2.855-45.689-0.7335-6.6191-0.5045-8.0405 1.414-8.7767 3.12-1.1972 7.1463 2.8549 5.2352 5.2688-0.89737 1.1334-1.0373 5.3041-0.38279 11.406 0.5675 5.2907 1.4364 17.659 1.9308 27.484 0.49442 9.8256 1.4679 21.266 2.1632 25.423 0.69534 4.157 1.6596 14.67 2.1427 23.361 1.5224 27.388 3.271 42.814 4.7494 41.901 0.5928-0.36637 1.8224-3.9146 2.7325-7.885 3.7955-16.559 13.38-39.566 18.966-45.527 10.069-10.745 17.133-10.644 23.06 0.3276 8.8267 16.339 14.065 25.35 16.156 27.793 1.253 1.4634 2.2782 3.7723 2.2782 5.1308 0 3.9686 8.8014 17.882 23.005 36.365 5.0433 6.5632 6.0476 13.353 1.9752 13.353-1.3774 0-4.0392-2.319-5.9151-5.1533z"/>
  <path id="path3404" class="cls-1 stem"
    style="--item: 2; --color: rgb(254, 219, 59)" d="m138.32 178.43c-1.8759-2.8343-6.5657-9.482-10.422-14.773-8.0093-10.989-9.637-13.799-22.54-38.908-11.416-22.22-13.957-25.794-16.309-22.96-0.9145 1.1019-2.3384 1.8686-3.1642 1.7038-4.572-0.91236-17.91 30.483-22.934 53.981-2.7774 12.991-4.9662 18.526-7.5241 19.024-4.6122 0.89878-4.5756 1.0343-8.2927-30.705-1.334-11.39-4.687-55.622-5.468-72.141-1.278-27.016-1.914-37.193-2.855-45.689-0.7335-6.6191-0.5045-8.0405 1.414-8.7767 3.12-1.1972 7.1463 2.8549 5.2352 5.2688-0.89737 1.1334-1.0373 5.3041-0.38279 11.406 0.5675 5.2907 1.4364 17.659 1.9308 27.484 0.49442 9.8256 1.4679 21.266 2.1632 25.423 0.69534 4.157 1.6596 14.67 2.1427 23.361 1.5224 27.388 3.271 42.814 4.7494 41.901 0.5928-0.36637 1.8224-3.9146 2.7325-7.885 3.7955-16.559 13.38-39.566 18.966-45.527 10.069-10.745 17.133-10.644 23.06 0.3276 8.8267 16.339 14.065 25.35 16.156 27.793 1.253 1.4634 2.2782 3.7723 2.2782 5.1308 0 3.9686 8.8014 17.882 23.005 36.365 5.0433 6.5632 6.0476 13.353 1.9752 13.353-1.3774 0-4.0392-2.319-5.9151-5.1533z"/>
  <path id="path3404" class="cls-1 stem"
    style="--item: 3; --color: rgb(49, 191, 186)" d="m140.32 179.43c-1.8759-2.8343-6.5657-9.482-10.422-14.773-8.0093-10.989-9.637-13.799-22.54-38.908-11.416-22.22-13.957-25.794-16.309-22.96-0.9145 1.1019-2.3384 1.8686-3.1642 1.7038-4.572-0.91236-17.91 30.483-22.934 53.981-2.7774 12.991-4.9662 18.526-7.5241 19.024-4.6122 0.89878-4.5756 1.0343-8.2927-30.705-1.334-11.39-4.687-55.622-5.468-72.141-1.278-27.016-1.914-37.193-2.855-45.689-0.7335-6.6191-0.5045-8.0405 1.414-8.7767 3.12-1.1972 7.1463 2.8549 5.2352 5.2688-0.89737 1.1334-1.0373 5.3041-0.38279 11.406 0.5675 5.2907 1.4364 17.659 1.9308 27.484 0.49442 9.8256 1.4679 21.266 2.1632 25.423 0.69534 4.157 1.6596 14.67 2.1427 23.361 1.5224 27.388 3.271 42.814 4.7494 41.901 0.5928-0.36637 1.8224-3.9146 2.7325-7.885 3.7955-16.559 13.38-39.566 18.966-45.527 10.069-10.745 17.133-10.644 23.06 0.3276 8.8267 16.339 14.065 25.35 16.156 27.793 1.253 1.4634 2.2782 3.7723 2.2782 5.1308 0 3.9686 8.8014 17.882 23.005 36.365 5.0433 6.5632 6.0476 13.353 1.9752 13.353-1.3774 0-4.0392-2.319-5.9151-5.1533z"/>
  
</svg>