<svg
  class="letter-i"
  data-name="Layer 1"
  xmlns="http://www.w3.org/2000/svg"
  viewBox="0 0 800 800"
>
  <style>
    .letter-i {
      width: 80vh;
      height: 80vh;
    }

    .cls-6-1 {
      fill: none;
      stroke: #000;
      stroke-miterlimit: 10;
      stroke-width: 3px;
      stroke-linecap: round;
      stroke-dasharray: 1500;
      animation: lines-6-1 4s infinite calc(var(--item) * 1s);
    }

    .cls-6-2 {
      fill: none;
      stroke: #000;
      stroke-miterlimit: 10;
      stroke-width: 3px;
      stroke-linecap: round;
      stroke-dasharray: 500;
      animation: lines-6-1 4s infinite calc(var(--item) * 1s);
    }

    .cls-6-3 {
      fill: none;
      stroke: #000;
      stroke-miterlimit: 1;
      stroke-width: 3px;
      stroke-linecap: round;
      stroke-dasharray: 50;
      animation: lines-6-1 14s infinite calc(var(--item) * 1s);
    }

    .dot {
      stroke-dasharray: 500;
      stroke: var(--color);
    }


    @keyframes lines-6-1 {
      100% {
        stroke-dashoffset: 3500;
      }
    }
    @keyframes lines-6-2 {
      100% {
        stroke-dashoffset: 1000;
      }
    }

    @keyframes lines-6-3 {
      100% {
        stroke-dashoffset: 100;
      }
    }

    .cls-1 {
      fill: none;
      stroke: #000;
      stroke-miterlimit: 10;
      stroke-width: 1px;
      stroke-linecap: round;
      stroke-miterlimit: 10;
      stroke-dasharray: 1500;
      animation: lines 4s infinite calc(var(--item) * 1s);
    }
    .stem {
      stroke: var(--color);
    }
    @keyframes lines {
      100% {
        stroke-dashoffset: 3000;
      }
    }
  </style>
  <g>
    <path class="cls-1 stem"
      style="--item: 1; --color: rgb(246, 9, 149)"
      d="m64.095 199.68c-0.87255-2.2738 2.2807-11.255 6.2268-17.735 3.2358-5.3136 11.695-22.963 11.877-24.779 0.10101-1.0095 1.2646-4.3134 2.5857-7.342 8.0953-18.558 12.984-30.818 12.464-31.259-0.26564-0.2253-5.0859-2.9856-10.712-6.1341-9.808-5.49-26.665-21.774-32.535-31.432-1.537-2.527-4.629-7.486-6.871-11.019-2.243-3.534-6.023-11.989-8.4-18.789l-4.3211-12.364 3.9946-3.9946 3.9946-3.9946 1.2834 5.3458c2.0125 8.3823 11.393 28.348 16.409 34.924 2.5043 3.2833 4.5533 6.7595 4.5533 7.7248 0 3.0865 21.897 23.707 28.504 26.843 3.504 1.6628 6.3843 4.017 6.4005 5.2315 0.0307 2.3004 12.558-24.605 22.389-48.086 4.345-10.378 8.5013-16.443 17.611-25.697 8.3003-8.4322 12.202-11.304 12.838-9.4518 0.50252 1.4638-0.0362 2.9781-1.1972 3.3651-1.161 0.38699-2.1108 1.7956-2.1108 3.1303s-2.6844 5.6493-5.9654 9.5881c-6.2738 7.5316-9.9973 14.407-15.197 28.061-1.7301 4.5429-4.6186 11.564-6.4188 15.602-1.8003 4.0381-4.5044 10.646-6.0092 14.684-1.5048 4.0381-4.7973 11.885-7.3167 17.437-4.6163 10.174-10.678 25.44-17.49 44.052-8.5051 23.237-17.369 38.546-22.319 38.546-1.8287 0-3.749-1.1052-4.2674-2.456zm-35.945-162.28c4.426-5.6869 11.18-11.702 12.104-10.778 0.49338 0.49338-2.0489 3.843-5.6496 7.4437-6.842 6.842-10.759 8.8657-6.4541 3.3345z"
    />
    <path class="cls-1 stem"
      style="--item: 2; --color: rgb(254, 219, 59)"
      d="m65.095 199.68c-0.87255-2.2738 2.2807-11.255 6.2268-17.735 3.2358-5.3136 11.695-22.963 11.877-24.779 0.10101-1.0095 1.2646-4.3134 2.5857-7.342 8.0953-18.558 12.984-30.818 12.464-31.259-0.26564-0.2253-5.0859-2.9856-10.712-6.1341-9.808-5.49-26.665-21.774-32.535-31.432-1.537-2.527-4.629-7.486-6.871-11.019-2.243-3.534-6.023-11.989-8.4-18.789l-4.3211-12.364 3.9946-3.9946 3.9946-3.9946 1.2834 5.3458c2.0125 8.3823 11.393 28.348 16.409 34.924 2.5043 3.2833 4.5533 6.7595 4.5533 7.7248 0 3.0865 21.897 23.707 28.504 26.843 3.504 1.6628 6.3843 4.017 6.4005 5.2315 0.0307 2.3004 12.558-24.605 22.389-48.086 4.345-10.378 8.5013-16.443 17.611-25.697 8.3003-8.4322 12.202-11.304 12.838-9.4518 0.50252 1.4638-0.0362 2.9781-1.1972 3.3651-1.161 0.38699-2.1108 1.7956-2.1108 3.1303s-2.6844 5.6493-5.9654 9.5881c-6.2738 7.5316-9.9973 14.407-15.197 28.061-1.7301 4.5429-4.6186 11.564-6.4188 15.602-1.8003 4.0381-4.5044 10.646-6.0092 14.684-1.5048 4.0381-4.7973 11.885-7.3167 17.437-4.6163 10.174-10.678 25.44-17.49 44.052-8.5051 23.237-17.369 38.546-22.319 38.546-1.8287 0-3.749-1.1052-4.2674-2.456zm-35.945-162.28c4.426-5.6869 11.18-11.702 12.104-10.778 0.49338 0.49338-2.0489 3.843-5.6496 7.4437-6.842 6.842-10.759 8.8657-6.4541 3.3345z"
    />
    <path class="cls-1 stem"
      style="--item: 3; --color: rgb(49, 191, 186)"
      d="m66.095 199.68c-0.87255-2.2738 2.2807-11.255 6.2268-17.735 3.2358-5.3136 11.695-22.963 11.877-24.779 0.10101-1.0095 1.2646-4.3134 2.5857-7.342 8.0953-18.558 12.984-30.818 12.464-31.259-0.26564-0.2253-5.0859-2.9856-10.712-6.1341-9.808-5.49-26.665-21.774-32.535-31.432-1.537-2.527-4.629-7.486-6.871-11.019-2.243-3.534-6.023-11.989-8.4-18.789l-4.3211-12.364 3.9946-3.9946 3.9946-3.9946 1.2834 5.3458c2.0125 8.3823 11.393 28.348 16.409 34.924 2.5043 3.2833 4.5533 6.7595 4.5533 7.7248 0 3.0865 21.897 23.707 28.504 26.843 3.504 1.6628 6.3843 4.017 6.4005 5.2315 0.0307 2.3004 12.558-24.605 22.389-48.086 4.345-10.378 8.5013-16.443 17.611-25.697 8.3003-8.4322 12.202-11.304 12.838-9.4518 0.50252 1.4638-0.0362 2.9781-1.1972 3.3651-1.161 0.38699-2.1108 1.7956-2.1108 3.1303s-2.6844 5.6493-5.9654 9.5881c-6.2738 7.5316-9.9973 14.407-15.197 28.061-1.7301 4.5429-4.6186 11.564-6.4188 15.602-1.8003 4.0381-4.5044 10.646-6.0092 14.684-1.5048 4.0381-4.7973 11.885-7.3167 17.437-4.6163 10.174-10.678 25.44-17.49 44.052-8.5051 23.237-17.369 38.546-22.319 38.546-1.8287 0-3.749-1.1052-4.2674-2.456zm-35.945-162.28c4.426-5.6869 11.18-11.702 12.104-10.778 0.49338 0.49338-2.0489 3.843-5.6496 7.4437-6.842 6.842-10.759 8.8657-6.4541 3.3345z"
    />
  </g>
</svg>